<?xml version="1.0" standalone="no"?>
<!DOCTYPE svg PUBLIC "-//W3C//DTD SVG 20010904//EN"
 "http://www.w3.org/TR/2001/REC-SVG-20010904/DTD/svg10.dtd">
<svg version="1.0" xmlns="http://www.w3.org/2000/svg"
 width="500.000000pt" height="200.000000pt" viewBox="0 0 338.000000 121.000000"
 preserveAspectRatio="xMidYMid meet">

<g transform="translate(0.000000,121.000000) scale(0.100000,-0.100000)"
fill="#000000" stroke="none">
<path d="M30 1111 c-6 -12 -10 -101 -10 -220 0 -168 2 -202 16 -215 13 -13 44
-16 188 -16 120 0 176 4 184 12 8 8 12 62 12 177 l0 166 -70 58 -69 57 -120 0
c-109 0 -121 -2 -131 -19z m242 -63 c3 -51 4 -53 33 -56 17 -1 45 -5 63 -8
l33 -5 -3 -142 -3 -142 -172 -3 -173 -2 0 205 0 205 109 0 110 0 3 -52z m78
-12 c11 -14 8 -16 -19 -16 -27 0 -31 4 -31 25 0 22 3 24 18 16 10 -5 24 -17
32 -25z"/>
<path d="M120 945 c0 -11 11 -15 40 -15 29 0 40 4 40 15 0 11 -11 15 -40 15
-29 0 -40 -4 -40 -15z"/>
<path d="M120 865 c0 -13 15 -15 100 -13 134 4 135 22 3 26 -88 2 -103 0 -103
-13z"/>
<path d="M115 790 c-3 -5 0 -13 8 -15 24 -10 202 -1 202 10 0 14 -201 19 -210
5z"/>
<path d="M527 994 c-17 -17 11 -24 94 -24 l89 0 0 -132 0 -131 -23 21 c-26 24
-37 28 -37 11 0 -15 63 -89 76 -89 20 0 86 88 72 96 -7 4 -21 -5 -34 -22 l-23
-29 -3 150 -3 150 -101 3 c-55 1 -103 0 -107 -4z"/>
<path d="M1272 798 c-18 -18 -14 -46 7 -58 38 -20 71 13 51 51 -12 21 -40 25
-58 7z"/>
<path d="M3035 798 c-28 -16 -35 -28 -35 -65 0 -23 -5 -33 -15 -33 -9 0 -15
-9 -15 -25 0 -16 6 -25 15 -25 12 0 15 -18 15 -105 l0 -105 30 0 30 0 0 105 0
105 40 0 c36 0 40 3 40 25 0 23 -4 25 -40 25 -36 0 -40 3 -40 24 0 27 27 41
59 31 24 -7 41 33 20 46 -20 12 -80 10 -104 -3z"/>
<path d="M960 615 l0 -175 35 0 35 0 0 65 0 65 40 0 c22 0 56 7 76 15 65 27
79 117 28 169 -28 28 -63 36 -150 36 l-64 0 0 -175z m168 103 c16 -16 15 -63
0 -76 -7 -5 -32 -12 -55 -14 l-43 -4 0 53 0 53 43 0 c24 0 48 -5 55 -12z"/>
<path d="M2251 772 c-60 -30 -76 -62 -76 -156 0 -92 13 -123 68 -157 26 -16
45 -19 96 -16 57 3 67 7 92 35 36 40 36 55 4 70 -22 10 -26 9 -40 -17 -26 -51
-106 -50 -138 1 -35 56 -27 153 16 183 34 24 92 19 114 -9 18 -22 21 -23 46
-9 23 12 26 17 17 34 -30 55 -131 76 -199 41z"/>
<path d="M1698 753 c-11 -3 -18 -14 -18 -29 0 -17 -5 -24 -20 -24 -15 0 -20
-7 -20 -25 0 -18 5 -25 20 -25 18 0 20 -7 20 -57 0 -74 16 -130 40 -143 23
-12 80 -13 99 -1 22 14 -3 46 -36 46 l-28 0 -3 78 -3 77 36 0 c31 0 35 3 35
25 0 22 -4 25 -35 25 -32 0 -35 2 -35 30 0 31 -9 34 -52 23z"/>
<path d="M3203 753 c-7 -2 -13 -16 -13 -29 0 -17 -6 -24 -20 -24 -15 0 -20 -7
-20 -25 0 -18 5 -25 20 -25 18 0 20 -7 20 -79 0 -101 19 -131 85 -131 48 0 60
10 50 41 -5 14 -12 18 -26 14 -36 -12 -49 12 -49 86 l0 69 40 0 c36 0 40 3 40
25 0 23 -4 25 -40 25 -38 0 -40 2 -40 30 0 30 -14 37 -47 23z"/>
<path d="M1270 570 l0 -130 30 0 30 0 0 130 0 130 -30 0 -30 0 0 -130z"/>
<path d="M1449 685 c-30 -16 -59 -70 -59 -109 0 -45 31 -106 61 -121 46 -24
115 -19 144 10 30 29 32 51 6 60 -13 4 -27 -1 -40 -14 -46 -46 -101 -10 -101
63 0 27 6 51 16 60 20 20 63 20 85 0 14 -13 20 -13 38 -2 27 17 26 22 -5 47
-32 25 -105 28 -145 6z"/>
<path d="M1922 687 c-49 -28 -73 -100 -52 -161 38 -117 207 -115 239 2 26 93
-28 172 -117 172 -26 -1 -57 -6 -70 -13z m112 -59 c23 -32 20 -94 -4 -118 -27
-27 -65 -26 -84 2 -21 30 -20 96 1 120 23 25 68 23 87 -4z"/>
<path d="M2520 570 l0 -130 30 0 30 0 0 90 c0 84 2 91 24 105 14 9 33 15 43
13 13 -2 19 4 21 25 3 24 0 27 -27 27 -20 0 -35 -8 -45 -22 l-16 -22 0 22 c0
18 -6 22 -30 22 l-30 0 0 -130z"/>
<path d="M2740 683 c-14 -9 -27 -18 -29 -19 -1 -2 3 -12 11 -22 12 -18 16 -18
33 -6 26 19 84 18 92 -2 7 -20 -10 -31 -61 -40 -76 -12 -107 -74 -65 -128 26
-33 86 -37 114 -6 l18 20 14 -20 c9 -12 25 -20 44 -20 39 0 51 28 21 48 -20
13 -22 23 -22 93 0 66 -3 82 -20 99 -26 26 -114 28 -150 3z m110 -143 c0 -20
-8 -34 -24 -45 -29 -19 -56 -10 -56 20 0 30 21 46 73 54 4 0 7 -12 7 -29z"/>
<path d="M331 586 c-8 -9 -11 -79 -9 -232 l3 -219 250 0 250 0 3 219 c2 153
-1 223 -9 232 -17 20 -471 20 -488 0z m469 -163 l-1 -148 -50 54 -50 54 -63
-62 -62 -61 -29 30 c-16 16 -34 30 -40 30 -6 0 -27 -16 -46 -36 -18 -20 -51
-49 -71 -66 l-38 -30 0 191 0 191 225 0 225 0 0 -147z"/>
<path d="M412 504 c-42 -29 -15 -114 37 -114 23 0 59 29 62 50 8 68 -44 102
-99 64z m72 -37 c9 -15 7 -21 -8 -32 -35 -26 -74 13 -44 43 16 16 38 12 52
-11z"/>
<path d="M30 421 l0 -121 95 0 c94 0 115 -8 75 -30 -19 -10 -28 -40 -12 -40 4
0 27 18 52 39 l45 39 -40 41 c-21 23 -45 41 -52 41 -19 0 -16 -10 9 -37 l21
-23 -81 0 -81 0 -3 102 c-2 70 -7 103 -15 106 -10 3 -13 -25 -13 -117z"/>
</g>
</svg>
